# xmcd
#
# Track frame offsets:
#	150
#	29865
#	46127
#	56177
#	79735
#	91820
#	105257
#	117005
#	136420
#	148307
#	164562
#	177025
#
# Disc length: 2596 seconds
#
# Revision: 0
# Processed by: cddbd v1.5PL3 Copyright (c) Steve Scherf et al.
# Submitted via: dBpowerAMP V4.0
#
DISCID=a20a220c
DTITLE=Los Originales de San Juan VS Los Razos - La Lucha de las Estrellas
DYEAR=1900
DGENRE=Latin
TTITLE0=El Cara de Chango
TTITLE1=Tirando Party
TTITLE2=El Padre de los Cabrones
TTITLE3=El Veterinario
TTITLE4=El Original
TTITLE5=Arriba Laguna Grande
TTITLE6=La Caspa del Diablo
TTITLE7=Tierra de Valientes
TTITLE8=Patron de Patrones
TTITLE9=Soy Cora
TTITLE10=Sin Pelos en la Lengua
TTITLE11=Que Bonito Es Michoacan
EXTD=
EXTT0=
EXTT1=
EXTT2=
EXTT3=
EXTT4=
EXTT5=
EXTT6=
EXTT7=
EXTT8=
EXTT9=
EXTT10=
EXTT11=
PLAYORDER=
